<svg id="Layer_1" data-name="Layer 1" xmlns="http://www.w3.org/2000/svg" viewBox="0 0 577.2 201.51"><defs><style>.cls-1{fill:#477d58;}.cls-2{fill:#262626;}.cls-3{fill:#fff;}.cls-4{font-size:174.94px;fill:#272727;font-family:ArbutusSlab-Regular, Arbutus Slab;letter-spacing:-0.04em;}</style></defs><path class="cls-1" d="M117.76,449.54c-2,.42-4,.76-6,1.26-8.44,2.11-16,5.75-21.67,12.62-4.75,5.77-6.72,12.56-7.67,19.83-1,7.78,1.14,15.12,2.39,22.62a204.5,204.5,0,0,1,2.73,23.24c.22,4.4-.73,9-1.81,13.3a12.28,12.28,0,0,1-8.9,9.33,13.56,13.56,0,0,1-1.53.26c1.24-3.73,2.78-7.35,3.65-11.12,1.9-8.29,2.09-16.75,1.66-25.21-.24-4.88-.52-9.75-1-14.61-.48-5.36-1-10.7-1.74-16a121.61,121.61,0,0,0-2.11-12.92,24.18,24.18,0,0,0-7.62-12.48,13.4,13.4,0,0,0-1.18-.93,3.35,3.35,0,0,0-.81-.25c.36.92.61,1.66.93,2.36,2.3,5.15,4.39,10.37,5,16,.71,6.48-2,9.84-8.27,10a30.55,30.55,0,0,1-5-.38,61.69,61.69,0,0,1-27.33-10.73c-11.33-8.14-18-19.32-20.64-32.89-2.2-11.26-1.52-22.54.42-33.78,0-.17.19-.31.36-.57a135.84,135.84,0,0,1,26.46,7.91c10.5,4.44,20,10.34,27.7,18.92a56.81,56.81,0,0,1,14.43,31.77c.1.8.3,1.59.57,3,.45-1.05.73-1.61.93-2.19,4.08-11.6,10.84-21.12,21.49-27.59a62.42,62.42,0,0,1,21.56-7.77c9.21-1.66,18.49-.87,27.74-1.12,10.26-.28,19.92-2.78,28.43-8.79a42.88,42.88,0,0,0,12.17-13.4c.25-.43.52-.85.79-1.27a3.48,3.48,0,0,1,.59-.11c-.84,7.81-1.5,15.51-2.56,23.17a92.06,92.06,0,0,1-9,29.25c-9.42,18.61-24.57,29.48-44.95,33.46-9.5,1.85-19.06,1.73-28.63,1.38-5.17-.2-10.28-.88-15-3.58-6.94-4-9-9.58-5.78-16.9,3.7-8.29,10.11-14.08,17.7-18.66,3.68-2.21,7.57-4.08,11.36-6.11Z" transform="translate(-9.54 -407.84)"/><path class="cls-2" d="M47.8,569.1c-9.51-.18-17.29-1.38-24.24-5.82-3.7-2.36-6.35-5.64-6.7-10.11a19.42,19.42,0,0,1,3.26-12.11,25.43,25.43,0,0,1,9.74-8.61,46.78,46.78,0,0,1,36.48-4,20.29,20.29,0,0,1,6,3c3.18,2.25,4.12,5.53,3.24,9.3-1,4.14-3.34,7.51-6.06,10.65-.86,1-1.1,1.61-.22,2.83,2.53,3.52,2,6.67-1.31,9.39s-7.4,3.9-11.56,4.56C53.11,568.72,49.73,568.91,47.8,569.1Zm22.91-25.57a6.14,6.14,0,0,0-.95-8.38c-3.36-3.06-7.54-3.85-11.91-4.08C64.09,533.24,70.25,535.43,70.71,543.53Z" transform="translate(-9.54 -407.84)"/><path class="cls-3" d="M70.71,543.53c-.46-8.1-6.62-10.29-12.86-12.46,4.37.23,8.55,1,11.91,4.08A6.14,6.14,0,0,1,70.71,543.53Z" transform="translate(-9.54 -407.84)"/><text class="cls-4" transform="translate(195.64 154.53)">SOIL</text></svg>