<svg id="Layer_1" data-name="Layer 1" xmlns="http://www.w3.org/2000/svg" viewBox="0 0 368.11 320.85"><defs><style>.cls-1{fill:#477d58;}.cls-2{fill:#262626;}.cls-3{fill:#fff;}</style></defs><path class="cls-1" d="M316.44,174.24c-4,.83-7.95,1.52-11.87,2.5-16.78,4.2-31.83,11.44-43.11,25.12-9.45,11.47-13.36,25-15.25,39.45-2,15.47,2.26,30.07,4.75,45a408.88,408.88,0,0,1,5.43,46.23c.44,8.76-1.45,17.85-3.6,26.46-2.29,9.1-8.13,15.9-17.71,18.57a24.45,24.45,0,0,1-3,.51c2.47-7.41,5.53-14.61,7.25-22.12,3.79-16.49,4.17-33.32,3.32-50.16-.49-9.7-1.05-19.4-1.9-29.07q-1.41-16-3.46-31.9c-1.11-8.6-2.16-17.28-4.19-25.69a48.19,48.19,0,0,0-15.17-24.84,28,28,0,0,0-2.34-1.85,7.29,7.29,0,0,0-1.61-.49c.71,1.83,1.21,3.3,1.84,4.7,4.58,10.24,8.74,20.63,10,31.89,1.42,12.89-3.93,19.58-16.44,19.93a58.31,58.31,0,0,1-10-.76c-19.75-2.95-38.1-9.65-54.37-21.34-22.54-16.2-35.8-38.45-41.07-65.45-4.37-22.4-3-44.85.82-67.21.06-.32.39-.6.74-1.13A271.89,271.89,0,0,1,158,108.33c20.89,8.84,39.86,20.59,55.12,37.65a113.14,113.14,0,0,1,28.72,63.23c.19,1.59.59,3.15,1.13,5.9.9-2.1,1.45-3.21,1.85-4.36,8.12-23.07,21.56-42,42.74-54.9,13.24-8,27.71-12.7,42.92-15.45,18.31-3.31,36.77-1.74,55.18-2.24,20.41-.55,39.62-5.52,56.56-17.49A85.12,85.12,0,0,0,466.48,94c.5-.85,1-1.68,1.57-2.51.05-.07.23,0,1.18-.22-1.69,15.52-3,30.86-5.09,46.09a183.48,183.48,0,0,1-17.88,58.19c-18.74,37-48.88,58.67-89.42,66.58-18.91,3.68-37.93,3.45-57,2.74-10.3-.38-20.45-1.75-29.81-7.11-13.82-7.92-18-19.07-11.49-33.64,7.35-16.48,20.1-28,35.22-37.11,7.31-4.41,15-8.13,22.59-12.16Z" transform="translate(-101.13 -91.28)"/><path class="cls-2" d="M177.24,412.13c-18.91-.37-34.4-2.76-48.22-11.58-7.37-4.71-12.64-11.22-13.34-20.12-.67-8.62,1.8-16.75,6.49-24.11,4.82-7.56,11.6-12.9,19.38-17.13,23.12-12.58,47.38-15.09,72.58-7.9a39.89,39.89,0,0,1,11.94,5.91c6.32,4.49,8.21,11,6.46,18.51-1.93,8.24-6.66,15-12.08,21.19-1.7,2-2.18,3.21-.42,5.64,5,7,4,13.27-2.61,18.67s-14.72,7.76-23,9.09C187.81,411.36,181.08,411.73,177.24,412.13Zm45.58-50.88c3.8-5.51,3.17-12.08-1.89-16.68-6.69-6.09-15-7.66-23.69-8.11C209.65,340.76,221.91,345.12,222.82,361.25Z" transform="translate(-101.13 -91.28)"/><path class="cls-3" d="M222.82,361.25c-.91-16.13-13.17-20.49-25.58-24.79,8.69.45,17,2,23.69,8.11C226,349.17,226.62,355.74,222.82,361.25Z" transform="translate(-101.13 -91.28)"/></svg>